<svg width="48" height="48" viewBox="0 0 48 48" fill="none" xmlns="http://www.w3.org/2000/svg">
<g id="material-symbols:arrow-forward-ios-rounded">
<path id="Vector" d="M29.4267 23.9998L14.7267 9.29982C14.2267 8.79982 13.9847 8.20782 14.0007 7.52382C14.0167 6.83982 14.2754 6.24848 14.7767 5.74982C15.2767 5.24982 15.8687 4.99982 16.5527 4.99982C17.2367 4.99982 17.8281 5.24982 18.3267 5.74982L33.6767 21.1498C34.0767 21.5498 34.3767 21.9998 34.5767 22.4998C34.7767 22.9998 34.8767 23.4998 34.8767 23.9998C34.8767 24.4998 34.7767 24.9998 34.5767 25.4998C34.3767 25.9998 34.0767 26.4498 33.6767 26.8498L18.2767 42.2498C17.7767 42.7498 17.1934 42.9918 16.5267 42.9758C15.8601 42.9598 15.2767 42.7012 14.7767 42.1998C14.2767 41.6998 14.0267 41.1078 14.0267 40.4238C14.0267 39.7398 14.2767 39.1485 14.7767 38.6498L29.4267 23.9998Z" fill="#FBD311"/>
</g>
</svg>
